<svg width="659" height="618" viewBox="0 0 659 618" fill="none" xmlns="http://www.w3.org/2000/svg">
<g clip-path="url(#clip0_893_4747)">
<rect width="659" height="618" fill="#272932"/>
<rect width="56.6765" height="66.5631" transform="matrix(0.866025 0.5 -0.866025 0.5 465.508 55.623)" fill="#59A5FC"/>
<rect width="49.9223" height="166.408" transform="matrix(0.866025 0.5 0 1 413.712 92.2812)" fill="url(#paint0_linear_893_4747)"/>
<rect width="66.5631" height="166.408" transform="matrix(0.866025 -0.5 0 1 456.946 117.242)" fill="url(#paint1_linear_893_4747)"/>
<rect width="166.408" height="49.9223" transform="matrix(0.866025 0.5 -0.866025 0.5 370.234 62.9766)" fill="#59A5FC"/>
<rect width="166.408" height="166.408" transform="matrix(0.866025 0.5 0 1 327 87.9375)" fill="url(#paint2_linear_893_4747)"/>
<rect width="49.9223" height="166.408" transform="matrix(0.866025 -0.5 0 1 471.114 171.143)" fill="url(#paint3_linear_893_4747)" fill-opacity="0.6"/>
<rect width="166.408" height="49.9223" transform="matrix(0.866025 0.5 -0.866025 0.5 232.517 20)" fill="#D7F38A"/>
<rect width="166.408" height="499.223" transform="matrix(0.866025 0.5 0 1 189.283 44.9609)" fill="url(#paint4_linear_893_4747)"/>
<rect width="49.9223" height="499.223" transform="matrix(0.866025 -0.5 0 1 333.397 128.166)" fill="url(#paint5_linear_893_4747)" fill-opacity="0.6"/>
<rect width="83.2039" height="133.126" transform="matrix(0.866025 0.5 -0.866025 0.5 376.13 103.203)" fill="#D7F38A"/>
<rect width="83.2039" height="249.612" transform="matrix(0.866025 0.5 0 1 260.839 169.766)" fill="url(#paint6_linear_893_4747)"/>
<rect width="133.126" height="249.612" transform="matrix(0.866025 -0.5 0 1 332.896 211.369)" fill="url(#paint7_linear_893_4747)"/>
<rect x="16" y="207" width="679" height="384" fill="url(#paint8_linear_893_4747)"/>
<rect x="379" y="222" width="31" height="291" fill="url(#paint9_linear_893_4747)"/>
<rect width="49.9223" height="116.485" transform="matrix(0.866025 0.5 -0.866025 0.5 145.53 70.6816)" fill="#59A5FC"/>
<rect width="49.9223" height="416.019" transform="matrix(0.866025 0.5 0 1 44.6504 128.924)" fill="url(#paint10_linear_893_4747)"/>
<rect width="116.485" height="416.019" transform="matrix(0.866025 -0.5 0 1 87.8843 153.885)" fill="url(#paint11_linear_893_4747)" fill-opacity="0.6"/>
<rect width="48.2937" height="115.103" transform="matrix(0.866025 0.5 -0.866025 0.5 145.849 201.807)" stroke="white" stroke-opacity="0.05" stroke-width="3"/>
<rect width="48.2937" height="115.103" transform="matrix(0.866025 0.5 -0.866025 0.5 145.849 225.504)" stroke="white" stroke-opacity="0.06" stroke-width="3"/>
<rect width="48.2937" height="115.103" transform="matrix(0.866025 0.5 -0.866025 0.5 145.849 249.203)" stroke="white" stroke-opacity="0.1" stroke-width="3"/>
<rect width="48.2937" height="115.103" transform="matrix(0.866025 0.5 -0.866025 0.5 145.849 272.902)" stroke="white" stroke-opacity="0.12" stroke-width="3"/>
<rect width="48.2937" height="115.103" transform="matrix(0.866025 0.5 -0.866025 0.5 145.849 296.602)" stroke="white" stroke-opacity="0.12" stroke-width="3"/>
<rect width="48.2937" height="115.103" transform="matrix(0.866025 0.5 -0.866025 0.5 145.849 320.301)" stroke="white" stroke-opacity="0.12" stroke-width="3"/>
<rect width="48.2937" height="115.103" transform="matrix(0.866025 0.5 -0.866025 0.5 145.849 344)" stroke="white" stroke-opacity="0.12" stroke-width="3"/>
<rect width="48.2937" height="115.103" transform="matrix(0.866025 0.5 -0.866025 0.5 145.849 367.699)" stroke="white" stroke-opacity="0.12" stroke-width="3"/>
<rect width="48.2937" height="115.103" transform="matrix(0.866025 0.5 -0.866025 0.5 145.849 391.398)" stroke="white" stroke-opacity="0.12" stroke-width="3"/>
<rect width="48.2937" height="115.103" transform="matrix(0.866025 0.5 -0.866025 0.5 145.849 415.098)" stroke="white" stroke-opacity="0.12" stroke-width="3"/>
<rect width="48.2937" height="115.103" transform="matrix(0.866025 0.5 -0.866025 0.5 145.85 438.797)" stroke="white" stroke-opacity="0.12" stroke-width="3"/>
<rect width="48.2937" height="115.103" transform="matrix(0.866025 0.5 -0.866025 0.5 145.85 462.496)" stroke="white" stroke-opacity="0.12" stroke-width="3"/>
<rect width="48.2937" height="115.103" transform="matrix(0.866025 0.5 -0.866025 0.5 145.85 486.195)" stroke="white" stroke-opacity="0.12" stroke-width="3"/>
<rect width="48.2937" height="115.103" transform="matrix(0.866025 0.5 -0.866025 0.5 145.85 509.895)" stroke="white" stroke-opacity="0.12" stroke-width="3"/>
<path d="M231.497 116.23L445.007 239.504L333.489 304.271L263.051 264.5L334.238 224.306L336.547 223.002L334.239 221.695L190.03 139.993L231.497 116.23Z" stroke="white" stroke-opacity="0.1" stroke-width="3"/>
<path d="M231.497 139.73L445.007 263.004L333.489 327.771L263.051 288L334.238 247.806L336.547 246.502L334.239 245.195L190.03 163.493L231.497 139.73Z" stroke="white" stroke-opacity="0.14" stroke-width="3"/>
<path d="M231.497 163.23L445.007 286.504L333.489 351.271L263.051 311.5L334.238 271.306L336.547 270.002L334.239 268.695L190.03 186.993L231.497 163.23Z" stroke="white" stroke-opacity="0.18" stroke-width="3"/>
<path d="M231.497 186.73L445.007 310.004L333.489 374.771L263.051 335L334.238 294.806L336.547 293.502L334.239 292.195L190.03 210.493L231.497 186.73Z" stroke="white" stroke-opacity="0.3" stroke-width="3"/>
<path d="M231.497 210.23L445.007 333.504L333.489 398.271L263.051 358.5L334.238 318.306L336.547 317.002L334.239 315.695L190.03 233.993L231.497 210.23Z" stroke="white" stroke-opacity="0.3" stroke-width="3"/>
<path d="M231.497 233.73L445.007 357.004L333.489 421.771L263.051 382L334.238 341.806L336.547 340.502L334.239 339.195L190.03 257.493L231.497 233.73Z" stroke="white" stroke-opacity="0.3" stroke-width="3"/>
<path d="M231.497 257.23L445.007 380.504L333.489 445.271L263.051 405.5L334.238 365.306L336.547 364.002L334.239 362.695L190.03 280.993L231.497 257.23Z" stroke="white" stroke-opacity="0.3" stroke-width="3"/>
<path d="M231.497 280.73L445.007 404.004L333.489 468.771L263.051 429L334.238 388.806L336.547 387.502L334.239 386.195L190.03 304.493L231.497 280.73Z" stroke="white" stroke-opacity="0.3" stroke-width="3"/>
<path d="M231.497 304.23L445.007 427.504L333.489 492.271L263.051 452.5L334.238 412.306L336.547 411.002L334.239 409.695L190.03 327.993L231.497 304.23Z" stroke="white" stroke-opacity="0.3" stroke-width="3"/>
<path d="M231.497 327.73L445.007 451.004L333.489 515.771L263.051 476L334.238 435.806L336.547 434.502L334.239 433.195L190.03 351.493L231.497 327.73Z" stroke="white" stroke-opacity="0.3" stroke-width="3"/>
<rect width="47.077" height="94.1539" transform="matrix(0.866025 0.5 -0.866025 0.5 261.118 228)" fill="#3482DB"/>
<rect width="47.077" height="235.385" transform="matrix(0.866025 0.5 0 1 179.579 275.076)" fill="url(#paint12_linear_893_4747)"/>
<rect width="94.1539" height="235.385" transform="matrix(0.866025 -0.5 0 1 220.349 298.615)" fill="url(#paint13_linear_893_4747)"/>
<rect width="99.8447" height="66.5631" transform="matrix(0.866025 0.5 -0.866025 0.5 180.646 274.594)" fill="#3482DB"/>
<rect width="99.8447" height="261.85" transform="matrix(0.866025 0.5 0 1 123 307.875)" fill="url(#paint14_linear_893_4747)"/>
<rect width="66.5631" height="166.408" transform="matrix(0.866025 -0.5 0 1 209.468 357.797)" fill="url(#paint15_linear_893_4747)"/>
<rect width="116.485" height="66.5631" transform="matrix(0.866025 0.5 -0.866025 0.5 354.98 293.252)" fill="#D7F38A"/>
<rect width="116.485" height="499.223" transform="matrix(0.866025 0.5 0 1 297.335 326.533)" fill="url(#paint16_linear_893_4747)"/>
<rect width="66.5631" height="499.223" transform="matrix(0.866025 -0.5 0 1 398.214 384.775)" fill="url(#paint17_linear_893_4747)"/>
<rect width="60" height="60" transform="matrix(0.866025 0.5 -0.866025 0.5 565.961 55)" fill="#D7F38A"/>
<rect width="60" height="600" transform="matrix(0.866025 0.5 0 1 514 85)" fill="url(#paint18_linear_893_4747)"/>
<rect width="60" height="600" transform="matrix(0.866025 -0.5 0 1 565.961 115)" fill="url(#paint19_linear_893_4747)"/>
<g style="mix-blend-mode:plus-lighter">
<rect width="58.23" height="58.23" transform="matrix(0.866025 0.5 -0.866025 0.5 566.429 133)" stroke="white" stroke-opacity="0.04" stroke-width="3" stroke-linejoin="round"/>
<rect width="58.23" height="58.23" transform="matrix(0.866025 0.5 -0.866025 0.5 566.429 155.564)" stroke="white" stroke-opacity="0.09" stroke-width="3" stroke-linejoin="round"/>
<rect width="58.23" height="58.23" transform="matrix(0.866025 0.5 -0.866025 0.5 566.429 178.129)" stroke="white" stroke-opacity="0.07" stroke-width="3" stroke-linejoin="round"/>
<rect width="58.23" height="58.23" transform="matrix(0.866025 0.5 -0.866025 0.5 566.429 200.691)" stroke="white" stroke-opacity="0.07" stroke-width="3" stroke-linejoin="round"/>
<rect width="58.23" height="58.23" transform="matrix(0.866025 0.5 -0.866025 0.5 566.429 223.256)" stroke="white" stroke-opacity="0.07" stroke-width="3" stroke-linejoin="round"/>
<rect width="58.23" height="58.23" transform="matrix(0.866025 0.5 -0.866025 0.5 566.429 245.82)" stroke="white" stroke-opacity="0.07" stroke-width="3" stroke-linejoin="round"/>
</g>
<rect width="113.433" height="63.726" transform="matrix(0.866025 0.5 -0.866025 0.5 355.02 403.914)" stroke="white" stroke-opacity="0.08" stroke-width="3"/>
<rect width="113.433" height="63.726" transform="matrix(0.866025 0.5 -0.866025 0.5 355.02 431.371)" stroke="white" stroke-opacity="0.17" stroke-width="3"/>
<rect width="113.433" height="63.726" transform="matrix(0.866025 0.5 -0.866025 0.5 355.02 458.828)" stroke="white" stroke-opacity="0.17" stroke-width="3"/>
<rect width="113.433" height="63.726" transform="matrix(0.866025 0.5 -0.866025 0.5 356.188 487)" stroke="white" stroke-opacity="0.17" stroke-width="3"/>
<rect width="113.433" height="63.726" transform="matrix(0.866025 0.5 -0.866025 0.5 355.188 514)" stroke="white" stroke-opacity="0.17" stroke-width="3"/>
<rect width="113.433" height="63.726" transform="matrix(0.866025 0.5 -0.866025 0.5 354.189 540)" stroke="white" stroke-opacity="0.17" stroke-width="3"/>
<rect width="66.5631" height="116.485" transform="matrix(0.866025 0.5 -0.866025 0.5 557.879 210)" fill="#4AC08F"/>
<rect width="66.5631" height="291.214" transform="matrix(0.866025 0.5 0 1 457 268.242)" fill="url(#paint20_linear_893_4747)"/>
<rect width="116.485" height="291.214" transform="matrix(0.866025 -0.5 0 1 514.646 301.523)" fill="url(#paint21_linear_893_4747)"/>
<rect x="92" y="312" width="31" height="291" fill="url(#paint22_linear_893_4747)"/>
<rect width="66.5631" height="66.5631" transform="matrix(0.866025 0.5 -0.866025 0.5 209.252 358)" fill="#59A5FC"/>
<rect width="66.5631" height="166.408" transform="matrix(0.866025 0.5 0 1 151.607 391.281)" fill="url(#paint23_linear_893_4747)"/>
<rect width="66.5631" height="166.408" transform="matrix(0.866025 -0.5 0 1 209.252 424.562)" fill="url(#paint24_linear_893_4747)"/>
<g style="mix-blend-mode:plus-lighter">
<rect width="66.5631" height="66.5631" transform="matrix(0.866025 0.5 -0.866025 0.5 209.252 437.875)" stroke="white" stroke-opacity="0.07" stroke-width="3" stroke-linejoin="round"/>
<rect width="66.5631" height="66.5631" transform="matrix(0.866025 0.5 -0.866025 0.5 209.252 463.668)" stroke="white" stroke-opacity="0.07" stroke-width="3" stroke-linejoin="round"/>
<rect width="66.5631" height="66.5631" transform="matrix(0.866025 0.5 -0.866025 0.5 209.252 489.461)" stroke="white" stroke-opacity="0.07" stroke-width="3" stroke-linejoin="round"/>
<rect width="66.5631" height="66.5631" transform="matrix(0.866025 0.5 -0.866025 0.5 208.646 540.504)" stroke="white" stroke-opacity="0.07" stroke-width="3" stroke-linejoin="round"/>
<rect width="66.5631" height="66.5631" transform="matrix(0.866025 0.5 -0.866025 0.5 209.252 515.254)" stroke="white" stroke-opacity="0.07" stroke-width="3" stroke-linejoin="round"/>
<rect width="66.5631" height="66.5631" transform="matrix(0.866025 0.5 -0.866025 0.5 209.646 567.504)" stroke="white" stroke-opacity="0.07" stroke-width="3" stroke-linejoin="round"/>
</g>
<rect width="114.44" height="64.2919" transform="matrix(-0.866732 0.498773 0.866732 0.498773 558.189 393)" stroke="white" stroke-opacity="0.25" stroke-width="3"/>
<rect width="114.44" height="64.2919" transform="matrix(-0.866732 0.498773 0.866732 0.498773 557.189 449)" stroke="white" stroke-opacity="0.17" stroke-width="3"/>
<rect width="114.44" height="64.2919" transform="matrix(-0.866732 0.498773 0.866732 0.498773 557.189 506)" stroke="white" stroke-opacity="0.17" stroke-width="3"/>
<rect width="114.44" height="64.2919" transform="matrix(-0.866732 0.498773 0.866732 0.498773 558.189 420.633)" stroke="white" stroke-opacity="0.25" stroke-width="3"/>
<rect width="114.44" height="64.2919" transform="matrix(-0.866732 0.498773 0.866732 0.498773 557.189 476.633)" stroke="white" stroke-opacity="0.17" stroke-width="3"/>
<rect width="114.44" height="64.2919" transform="matrix(-0.866732 0.498773 0.866732 0.498773 557.189 533.633)" stroke="white" stroke-opacity="0.17" stroke-width="3"/>
<rect width="114.44" height="64.2919" transform="matrix(-0.866732 0.498773 0.866732 0.498773 559.428 281.957)" stroke="white" stroke-opacity="0.05" stroke-width="3"/>
<rect width="114.44" height="64.2919" transform="matrix(-0.866732 0.498773 0.866732 0.498773 559.428 309.59)" stroke="white" stroke-opacity="0.12" stroke-width="3"/>
<rect width="114.44" height="64.2919" transform="matrix(-0.866732 0.498773 0.866732 0.498773 559.428 337.223)" stroke="white" stroke-opacity="0.17" stroke-width="3"/>
<rect width="114.44" height="64.2919" transform="matrix(-0.866732 0.498773 0.866732 0.498773 559.428 364.855)" stroke="white" stroke-opacity="0.25" stroke-width="3"/>
<rect width="66.5631" height="66.5631" transform="matrix(0.866025 0.5 -0.866025 0.5 580.455 321.375)" fill="#59A5FC"/>
<path d="M522.81 354.656L580.455 387.938V626.346L522.81 593.064V354.656Z" fill="url(#paint25_linear_893_4747)"/>
<path d="M580.455 387.938L638.1 354.656V586.064L580.455 619.345V387.938Z" fill="url(#paint26_linear_893_4747)"/>
<g style="mix-blend-mode:plus-lighter">
<rect width="66.5631" height="66.5631" transform="matrix(0.866025 0.5 -0.866025 0.5 581.252 402)" stroke="white" stroke-opacity="0.07" stroke-width="3" stroke-linejoin="round"/>
<rect width="66.5631" height="66.5631" transform="matrix(0.866025 0.5 -0.866025 0.5 581.252 427.793)" stroke="white" stroke-opacity="0.1" stroke-width="3" stroke-linejoin="round"/>
<rect width="66.5631" height="66.5631" transform="matrix(0.866025 0.5 -0.866025 0.5 581.252 453.586)" stroke="white" stroke-opacity="0.13" stroke-width="3" stroke-linejoin="round"/>
<rect width="66.5631" height="66.5631" transform="matrix(0.866025 0.5 -0.866025 0.5 580.646 504.629)" stroke="white" stroke-opacity="0.07" stroke-width="3" stroke-linejoin="round"/>
<rect width="66.5631" height="66.5631" transform="matrix(0.866025 0.5 -0.866025 0.5 581.252 479.379)" stroke="white" stroke-opacity="0.07" stroke-width="3" stroke-linejoin="round"/>
<rect width="66.5631" height="66.5631" transform="matrix(0.866025 0.5 -0.866025 0.5 581.646 531.629)" stroke="white" stroke-opacity="0.07" stroke-width="3" stroke-linejoin="round"/>
</g>
<rect x="-77" y="381" width="816" height="243" fill="url(#paint27_linear_893_4747)"/>
<rect x="-141" width="816" height="558" fill="#272932" fill-opacity="0.2"/>
</g>
<defs>
<linearGradient id="paint0_linear_893_4747" x1="24.9444" y1="-6.22523" x2="25.3967" y2="166.407" gradientUnits="userSpaceOnUse">
<stop offset="0.00873047" stop-color="#5F8BFF"/>
<stop offset="0.25373" stop-color="#2354D1"/>
<stop offset="1" stop-color="#272932"/>
</linearGradient>
<linearGradient id="paint1_linear_893_4747" x1="33.2593" y1="-6.22523" x2="33.5985" y2="166.407" gradientUnits="userSpaceOnUse">
<stop offset="0.00873047" stop-color="#5F8BFF"/>
<stop offset="0.25373" stop-color="#2354D1"/>
<stop offset="1" stop-color="#272932"/>
</linearGradient>
<linearGradient id="paint2_linear_893_4747" x1="83.1482" y1="-6.22523" x2="83.2838" y2="166.408" gradientUnits="userSpaceOnUse">
<stop offset="0.00873047" stop-color="#5F8BFF"/>
<stop offset="0.25373" stop-color="#2354D1"/>
<stop offset="1" stop-color="#272932"/>
</linearGradient>
<linearGradient id="paint3_linear_893_4747" x1="24.9444" y1="-6.22523" x2="25.3967" y2="166.407" gradientUnits="userSpaceOnUse">
<stop offset="0.00873047" stop-color="#5F8BFF"/>
<stop offset="0.25373" stop-color="#2354D1"/>
<stop offset="1" stop-color="#272932"/>
</linearGradient>
<linearGradient id="paint4_linear_893_4747" x1="83.1483" y1="20.2388" x2="84.1927" y2="499.221" gradientUnits="userSpaceOnUse">
<stop offset="0.0001" stop-color="#8BC790"/>
<stop offset="0.13873" stop-color="#46B486"/>
<stop offset="0.319941" stop-color="#2C646F"/>
<stop offset="1" stop-color="#18275E"/>
</linearGradient>
<linearGradient id="paint5_linear_893_4747" x1="24.9445" y1="20.2388" x2="28.4258" y2="499.198" gradientUnits="userSpaceOnUse">
<stop stop-color="#C7D898"/>
<stop offset="0.13873" stop-color="#46B486"/>
<stop offset="1" stop-color="#272932"/>
</linearGradient>
<linearGradient id="paint6_linear_893_4747" x1="41.5741" y1="10.1194" x2="42.0964" y2="249.611" gradientUnits="userSpaceOnUse">
<stop offset="0.0449414" stop-color="#AED194"/>
<stop offset="0.114941" stop-color="#87C68F"/>
<stop offset="0.230781" stop-color="#46B486"/>
<stop offset="0.600781" stop-color="#376F5D"/>
<stop offset="1" stop-color="#272932"/>
</linearGradient>
<linearGradient id="paint7_linear_893_4747" x1="66.5186" y1="10.1194" x2="66.845" y2="249.611" gradientUnits="userSpaceOnUse">
<stop offset="0.0001" stop-color="#81C48E"/>
<stop offset="0.150781" stop-color="#46B486"/>
<stop offset="0.425781" stop-color="#376F5D"/>
<stop offset="1" stop-color="#272932"/>
</linearGradient>
<linearGradient id="paint8_linear_893_4747" x1="312.23" y1="207" x2="312.23" y2="550.622" gradientUnits="userSpaceOnUse">
<stop stop-color="#272932" stop-opacity="0"/>
<stop offset="1" stop-color="#272932"/>
</linearGradient>
<linearGradient id="paint9_linear_893_4747" x1="392.525" y1="222" x2="392.525" y2="482.401" gradientUnits="userSpaceOnUse">
<stop stop-color="#272932" stop-opacity="0"/>
<stop offset="1" stop-color="#272932"/>
</linearGradient>
<linearGradient id="paint10_linear_893_4747" x1="24.9444" y1="-15.5631" x2="27.7709" y2="416.001" gradientUnits="userSpaceOnUse">
<stop offset="0.00873047" stop-color="#5F8BFF"/>
<stop offset="0.25373" stop-color="#2354D1"/>
<stop offset="1" stop-color="#272932"/>
</linearGradient>
<linearGradient id="paint11_linear_893_4747" x1="58.2037" y1="-15.5631" x2="59.4151" y2="416.016" gradientUnits="userSpaceOnUse">
<stop offset="0.00873047" stop-color="#5F8BFF"/>
<stop offset="0.25373" stop-color="#2354D1"/>
<stop offset="1" stop-color="#272932"/>
</linearGradient>
<linearGradient id="paint12_linear_893_4747" x1="23.5227" y1="-8.80563" x2="24.4823" y2="235.381" gradientUnits="userSpaceOnUse">
<stop offset="0.00873047" stop-color="#5F8BFF"/>
<stop offset="0.25373" stop-color="#2354D1"/>
<stop offset="1" stop-color="#272932"/>
</linearGradient>
<linearGradient id="paint13_linear_893_4747" x1="47.0454" y1="-8.80563" x2="47.5252" y2="235.384" gradientUnits="userSpaceOnUse">
<stop stop-color="#5F8BFF"/>
<stop offset="0.0001" stop-color="#4371E9"/>
<stop offset="0.0757812" stop-color="#2354D1"/>
<stop offset="0.550781" stop-color="#263255"/>
<stop offset="0.935781" stop-color="#272932"/>
</linearGradient>
<linearGradient id="paint14_linear_893_4747" x1="49.8889" y1="-9.79569" x2="50.4488" y2="261.849" gradientUnits="userSpaceOnUse">
<stop stop-color="#5F8BFF"/>
<stop offset="0.0001" stop-color="#4371E9"/>
<stop offset="0.185781" stop-color="#2354D1"/>
<stop offset="0.935781" stop-color="#272932"/>
</linearGradient>
<linearGradient id="paint15_linear_893_4747" x1="33.2593" y1="-6.22523" x2="33.5985" y2="166.407" gradientUnits="userSpaceOnUse">
<stop offset="0.00883047" stop-color="#406FE7"/>
<stop offset="0.00893047" stop-color="#3060DB"/>
<stop offset="0.175781" stop-color="#2354D1"/>
<stop offset="0.535781" stop-color="#272932"/>
</linearGradient>
<linearGradient id="paint16_linear_893_4747" x1="58.2038" y1="20.2388" x2="59.6959" y2="499.219" gradientUnits="userSpaceOnUse">
<stop offset="0.0249414" stop-color="#A5CE93"/>
<stop offset="0.095" stop-color="#46B486"/>
<stop offset="0.19" stop-color="#31564D"/>
<stop offset="0.29" stop-color="#272932"/>
</linearGradient>
<linearGradient id="paint17_linear_893_4747" x1="33.2593" y1="20.2388" x2="35.8704" y2="499.209" gradientUnits="userSpaceOnUse">
<stop stop-color="#46B486"/>
<stop offset="0.145781" stop-color="#31564D"/>
<stop offset="0.29" stop-color="#272932"/>
<stop offset="0.645781" stop-color="#272932"/>
</linearGradient>
<linearGradient id="paint18_linear_893_4747" x1="29.98" y1="24.3243" x2="34.164" y2="599.97" gradientUnits="userSpaceOnUse">
<stop offset="0.0399414" stop-color="#91C990"/>
<stop offset="0.095" stop-color="#46B486"/>
<stop offset="0.19" stop-color="#31564D"/>
<stop offset="0.29" stop-color="#272932"/>
</linearGradient>
<linearGradient id="paint19_linear_893_4747" x1="29.98" y1="24.3243" x2="34.164" y2="599.97" gradientUnits="userSpaceOnUse">
<stop stop-color="#46B486"/>
<stop offset="0.145781" stop-color="#31564D"/>
<stop offset="0.29" stop-color="#272932"/>
<stop offset="0.645781" stop-color="#272932"/>
</linearGradient>
<linearGradient id="paint20_linear_893_4747" x1="33.2593" y1="11.806" x2="34.1478" y2="291.211" gradientUnits="userSpaceOnUse">
<stop stop-color="#419C78"/>
<stop offset="0.505781" stop-color="#1D5269"/>
<stop offset="0.825" stop-color="#272932"/>
</linearGradient>
<linearGradient id="paint21_linear_893_4747" x1="58.2038" y1="11.806" x2="58.7115" y2="291.213" gradientUnits="userSpaceOnUse">
<stop stop-color="#398B74"/>
<stop offset="0.270781" stop-color="#1D5269"/>
<stop offset="0.535781" stop-color="#272932"/>
</linearGradient>
<linearGradient id="paint22_linear_893_4747" x1="105.525" y1="312" x2="105.525" y2="572.401" gradientUnits="userSpaceOnUse">
<stop stop-color="#272932" stop-opacity="0"/>
<stop offset="1" stop-color="#272932"/>
</linearGradient>
<linearGradient id="paint23_linear_893_4747" x1="33.2593" y1="-6.22523" x2="33.5985" y2="166.407" gradientUnits="userSpaceOnUse">
<stop offset="0.00873047" stop-color="#5F8BFF"/>
<stop offset="0.25373" stop-color="#2354D1"/>
<stop offset="1" stop-color="#272932"/>
</linearGradient>
<linearGradient id="paint24_linear_893_4747" x1="33.2593" y1="-6.22523" x2="33.5985" y2="166.407" gradientUnits="userSpaceOnUse">
<stop offset="0.00873047" stop-color="#4570DF"/>
<stop offset="0.25373" stop-color="#244290"/>
<stop offset="1" stop-color="#272932"/>
</linearGradient>
<linearGradient id="paint25_linear_893_4747" x1="551.613" y1="365.061" x2="477.008" y2="494.79" gradientUnits="userSpaceOnUse">
<stop offset="0.00873047" stop-color="#5F8BFF"/>
<stop offset="0.25373" stop-color="#2354D1"/>
<stop offset="1" stop-color="#272932"/>
</linearGradient>
<linearGradient id="paint26_linear_893_4747" x1="609.258" y1="365.083" x2="684.157" y2="494.303" gradientUnits="userSpaceOnUse">
<stop offset="0.00883047" stop-color="#4271E9"/>
<stop offset="0.175781" stop-color="#2354D1"/>
<stop offset="0.675781" stop-color="#272932"/>
</linearGradient>
<linearGradient id="paint27_linear_893_4747" x1="279" y1="381" x2="279" y2="598.448" gradientUnits="userSpaceOnUse">
<stop stop-color="#272932" stop-opacity="0"/>
<stop offset="1" stop-color="#272932"/>
</linearGradient>
<clipPath id="clip0_893_4747">
<rect width="659" height="618" fill="white"/>
</clipPath>
</defs>
</svg>
